<?xml version="1.0" standalone="no"?>
<svg xmlns:xlink="http://www.w3.org/1999/xlink" id="wave" style="transform:rotate(180deg); transition: 0.3s" viewBox="0 0 1440 200" version="1.1" xmlns="http://www.w3.org/2000/svg"><defs><linearGradient id="sw-gradient-0" x1="0" x2="0" y1="1" y2="0"><stop stop-color="rgba(160.679, 55.164, 200.813, 1)" offset="0%"/><stop stop-color="rgba(196.032, 11, 255, 1)" offset="100%"/></linearGradient></defs><path style="transform:translate(0, 0px); opacity:1" fill="url(#sw-gradient-0)" d="M0,60L30,66.7C60,73,120,87,180,80C240,73,300,47,360,60C420,73,480,127,540,146.7C600,167,660,153,720,126.7C780,100,840,60,900,53.3C960,47,1020,73,1080,96.7C1140,120,1200,140,1260,150C1320,160,1380,160,1440,143.3C1500,127,1560,93,1620,73.3C1680,53,1740,47,1800,40C1860,33,1920,27,1980,20C2040,13,2100,7,2160,30C2220,53,2280,107,2340,133.3C2400,160,2460,160,2520,150C2580,140,2640,120,2700,100C2760,80,2820,60,2880,46.7C2940,33,3000,27,3060,20C3120,13,3180,7,3240,33.3C3300,60,3360,120,3420,133.3C3480,147,3540,113,3600,93.3C3660,73,3720,67,3780,73.3C3840,80,3900,100,3960,100C4020,100,4080,80,4140,86.7C4200,93,4260,127,4290,143.3L4320,160L4320,200L4290,200C4260,200,4200,200,4140,200C4080,200,4020,200,3960,200C3900,200,3840,200,3780,200C3720,200,3660,200,3600,200C3540,200,3480,200,3420,200C3360,200,3300,200,3240,200C3180,200,3120,200,3060,200C3000,200,2940,200,2880,200C2820,200,2760,200,2700,200C2640,200,2580,200,2520,200C2460,200,2400,200,2340,200C2280,200,2220,200,2160,200C2100,200,2040,200,1980,200C1920,200,1860,200,1800,200C1740,200,1680,200,1620,200C1560,200,1500,200,1440,200C1380,200,1320,200,1260,200C1200,200,1140,200,1080,200C1020,200,960,200,900,200C840,200,780,200,720,200C660,200,600,200,540,200C480,200,420,200,360,200C300,200,240,200,180,200C120,200,60,200,30,200L0,200Z"/></svg>