<?xml version="1.0" standalone="no"?>
<svg xmlns:xlink="http://www.w3.org/1999/xlink" id="wave" style="transform:rotate(0deg); transition: 0.3s" viewBox="0 0 1440 200" version="1.1" xmlns="http://www.w3.org/2000/svg"><defs><linearGradient id="sw-gradient-0" x1="0" x2="0" y1="1" y2="0"><stop stop-color="rgba(160.679, 55.164, 200.813, 1)" offset="0%"/><stop stop-color="rgba(196.032, 11, 255, 1)" offset="100%"/></linearGradient></defs><path style="transform:translate(0, 0px); opacity:1" fill="url(#sw-gradient-0)" d="M0,0L30,26.7C60,53,120,107,180,110C240,113,300,67,360,50C420,33,480,47,540,63.3C600,80,660,100,720,103.3C780,107,840,93,900,80C960,67,1020,53,1080,40C1140,27,1200,13,1260,16.7C1320,20,1380,40,1440,43.3C1500,47,1560,33,1620,33.3C1680,33,1740,47,1800,66.7C1860,87,1920,113,1980,113.3C2040,113,2100,87,2160,80C2220,73,2280,87,2340,93.3C2400,100,2460,100,2520,86.7C2580,73,2640,47,2700,43.3C2760,40,2820,60,2880,80C2940,100,3000,120,3060,126.7C3120,133,3180,127,3240,103.3C3300,80,3360,40,3420,26.7C3480,13,3540,27,3600,43.3C3660,60,3720,80,3780,76.7C3840,73,3900,47,3960,46.7C4020,47,4080,73,4140,93.3C4200,113,4260,127,4290,133.3L4320,140L4320,200L4290,200C4260,200,4200,200,4140,200C4080,200,4020,200,3960,200C3900,200,3840,200,3780,200C3720,200,3660,200,3600,200C3540,200,3480,200,3420,200C3360,200,3300,200,3240,200C3180,200,3120,200,3060,200C3000,200,2940,200,2880,200C2820,200,2760,200,2700,200C2640,200,2580,200,2520,200C2460,200,2400,200,2340,200C2280,200,2220,200,2160,200C2100,200,2040,200,1980,200C1920,200,1860,200,1800,200C1740,200,1680,200,1620,200C1560,200,1500,200,1440,200C1380,200,1320,200,1260,200C1200,200,1140,200,1080,200C1020,200,960,200,900,200C840,200,780,200,720,200C660,200,600,200,540,200C480,200,420,200,360,200C300,200,240,200,180,200C120,200,60,200,30,200L0,200Z"/></svg>